<?xml version="1.0" encoding="UTF-8"?>
<!-- Created with Inkscape (http://www.inkscape.org/) -->
<svg width="70.131mm" height="26.506mm" version="1.1" viewBox="0 0 70.131 26.506" xmlns="http://www.w3.org/2000/svg">
<rect width="100%" height="100%" fill="#33414f" />
 <g transform="translate(-2.7457e-7 8.9431e-5)" fill="#ffffff">
  <g transform="matrix(.45444 0 0 .45444 31.655 -59.778)" stroke-width="1.1657" aria-label="                              GWA">
   <path d="m-14.007 165.37c5.0242-0.34361 7.4257-3.4991 7.0694-8.7094l-0.72858-10.653-7.3968 0.50587 0.31816 4.652 2.5586-0.17499 0.43587 6.3733c0.15908 2.326-0.80711 3.2334-2.4353 3.3447-1.6282 0.11136-2.7089-0.65602-2.868-2.982l-1.2185-17.817c-0.15908-2.326 0.80392-3.2799 2.4321-3.3913 1.6282-0.11135 2.7121 0.70255 2.8712 3.0286l0.21316 3.1169 4.8381-0.33088-0.19089-2.7912c-0.35633-5.2103-3.1651-8.0094-8.1893-7.6658-5.0242 0.34361-7.4257 3.4991-7.0694 8.7094l1.1708 17.12c0.35633 5.2103 3.1651 8.0094 8.1893 7.6658z"/>
   <path d="m-0.99403 164.19 6.8078 0.0179 2.3893-22.003 0.093258 2.5e-4 2.2736 22.015 6.3882 0.0168 3.3964-32.632-4.4298-0.0116-2.3507 25.08-0.09326-2.5e-4 -2.3588-25.093-5.5955-0.0147-2.4906 25.08-0.093258-2.4e-4 -2.2189-25.092-4.9427-0.013z"/>
   <path d="m20.88 164.38 4.7428 0.35679 1.4092-6.3002 5.8122 0.43725 7e-3 -0.093 0.44374 6.5332 5.1148 0.38478-2.8522-32.947-6.9282-0.5212zm7.0887-10.315 3.4422-15.92 0.09299 7e-3 1.0681 16.26z"/>
  </g>
  <g transform="matrix(.45444 0 0 .45444 31.572 -50.881)" stroke-width=".46206" aria-label="                                                                          A UNIPD GYM">
   <path d="m-27.934 166.18 1.8745-0.20079 0.09786-2.557 2.2971-0.24606-0.0039-0.0368 0.64116 2.515 2.0215-0.21653-3.4729-12.64-2.7382 0.2933zm2.0242-4.5292 0.201-6.453 0.03675-4e-3 1.5816 6.262z"/>
   <path d="m-14.119 165.09c1.9915-0.13552 2.9438-1.3859 2.8032-3.4512l-0.67005-9.8467-1.9546 0.13301 0.68009 9.9942c0.06274 0.92197-0.3019 1.2802-0.94729 1.3242-0.64538 0.0439-1.0552-0.26164-1.1179-1.1836l-0.68009-9.9942-2.0284 0.13803 0.67005 9.8467c0.14054 2.0652 1.2535 3.1751 3.2449 3.0396z"/>
   <path d="m-9.6676 164.62 1.8097-0.0761-0.39693-9.4361 0.036932-2e-3 2.8344 9.3335 2.0866-0.0878-0.54373-12.926-1.8097 0.0761 0.32546 7.7372-0.036932 2e-3 -2.3013-7.6541-2.5483 0.10719z"/>
   <path d="m-1.7809 164.33 2.0325-0.048-0.30531-12.934-2.0325 0.048z"/>
   <path d="m1.7675 164.24 2.033-0.0141-0.036485-5.2673 0.96105-7e-3c2.033-0.0141 3.0232-1.1484 3.0089-3.2183l-0.00883-1.2752c-0.014342-2.0696-1.0202-3.1901-3.0532-3.176l-2.994 0.0207zm1.9837-7.1296-0.027524-3.9736 0.96105-7e-3c0.64686-4e-3 1.0001 0.28879 1.0065 1.2129l0.010626 1.534c0.0064 0.92408-0.3427 1.2222-0.98957 1.2267z"/>
   <path d="m8.904 164.21 3.1046 0.0489c2.0328 0.032 3.0485-1.0796 3.081-3.1493l0.103-6.5419c0.03259-2.0698-0.94758-3.2127-2.9804-3.2447l-3.1046-0.0489zm2.0619-1.816 0.14547-9.24 1.0349 0.0163c0.6468 0.0102 1.0296 0.34893 1.0151 1.2729l-0.1059 6.7267c-0.01455 0.924-0.40786 1.2505-1.0547 1.2403z"/>
   <path d="m22.233 164.77c1.9937 0.0967 3.0848-1.0346 3.1852-3.1022l0.2051-4.2275-2.9352-0.1424-0.08956 1.846 1.0153 0.0493-0.1227 2.5291c-0.04478 0.92302-0.46703 1.2356-1.1132 1.2043-0.64612-0.0314-1.0361-0.38334-0.99134-1.3064l0.34302-7.0704c0.04478-0.92303 0.46793-1.2541 1.114-1.2227 0.64612 0.0314 1.0352 0.4018 0.99045 1.3248l-0.06001 1.2368 1.9199 0.0932 0.05374-1.1076c0.10031-2.0676-0.87616-3.2992-2.8699-3.3959-1.9937-0.0967-3.0848 1.0346-3.1852 3.1022l-0.32959 6.7935c-0.10031 2.0676 0.87616 3.2992 2.8699 3.3959z"/>
   <path d="m28.165 164.94 2.0276 0.14811 0.40125-5.4931 2.9929-7.231-1.9723-0.14407-1.7285 4.6363-0.03687-3e-3 -1.0364-4.8383-2.1567-0.15753 1.9103 7.5892z"/>
   <path d="m33.566 165.33 1.7644 0.18667 1.0305-9.7412 0.03676 4e-3 0.43983 9.8968 1.6909 0.17888 2.5009-9.5856 0.03676 4e-3 -1.0305 9.7412 1.9115 0.20222 1.3611-12.866-2.8856-0.30527-2.2607 9.0721-0.03676-4e-3 -0.31242-9.3443-2.8856-0.30527z"/>
  </g>
  <path d="m11.083 12.371c-0.12723-9.9e-4 -0.255 9e-3 -0.38278 0.0317l7.69e-4 2.4e-4a0.27397 0.27397 0 0 0-4e-3 -2.4e-4l-0.01245 9.9e-4c-6.36e-4 1.4e-4 -0.0011 1.4e-4 -0.0019 2.4e-4a0.27397 0.27397 0 0 0-0.02255 5e-3l0.0068-9.9e-4 -1.7441 0.32855a0.27397 0.27397 0 0 0-0.01338 2e-3l-4e-3 9.9e-4a0.27397 0.27397 0 0 0-0.0015 2.3e-4 0.27397 0.27397 0 0 0-0.0015 4e-4c-0.24426 0.0478-0.47177 0.13823-0.6822 0.2642-0.23974-0.0406-0.48247-0.0427-0.72541 2.3e-4l9.26e-4 4e-4a0.27397 0.27397 0 0 0-4e-3 -2.5e-4l-0.01268 9.9e-4c-6.36e-4 1.7e-4 -0.0011 1.7e-4 -0.0019 2.3e-4a0.27397 0.27397 0 0 0-0.02255 5e-3l0.0068-9.9e-4 -1.7441 0.32829a0.27397 0.27397 0 0 0-0.01878 5e-3 0.27397 0.27397 0 0 0-0.0014 3.9e-4c-0.24391 0.0478-0.47084 0.13853-0.68102 0.26419-0.24014-0.0407-0.48301-0.0424-0.72635 4e-4l8.38e-4 2.2e-4a0.27397 0.27397 0 0 0-4e-3 -2.2e-4l-0.0127 9.9e-4c-5.18e-4 1.8e-4 -0.0014 1.8e-4 -0.0019 2.4e-4a0.27397 0.27397 0 0 0-0.02255 5e-3l0.0071-9.9e-4 -1.7441 0.32971a0.27397 0.27397 0 0 0-0.01901 5e-3 0.27397 0.27397 0 0 0-0.0014 4e-4c-1.0196 0.20029-1.7504 1.129-2.1436 2.377-0.39334 1.2485-0.46823 2.8498-0.1503 4.5394a0.27397 0.27397 0 0 0 0 2.4e-4c0.31748 1.6853 0.9673 3.1472 1.7852 4.1669 0.81743 1.0191 1.8322 1.6207 2.8533 1.4438a0.27397 0.27397 0 0 0 0.0058 2e-4l0.01222-9.9e-4 -0.0058 9.9e-4a0.27397 0.27397 0 0 0 0.03429-6e-3l-0.0055 9.9e-4 1.7385-0.32713-0.0077 9.9e-4a0.27397 0.27397 0 0 0 0.03052-6e-3 0.27397 0.27397 0 0 0 0.0014-2e-4c0.24561-0.048 0.47428-0.13888 0.68572-0.26584 0.23685 0.0398 0.47623 0.0423 0.71625 9.9e-4a0.27397 0.27397 0 0 0 0.0058 3.9e-4l0.01221-9.9e-4 -0.0061 9.9e-4a0.27397 0.27397 0 0 0 0.03452-6e-3l-0.0058 9.9e-4 1.7387-0.32712-0.0079 9.9e-4a0.27397 0.27397 0 0 0 0.03075-6e-3 0.27397 0.27397 0 0 0 9.26e-4 -4e-4c0.24509-0.048 0.47325-0.13861 0.68431-0.26513 0.23727 0.04 0.47744 0.0422 0.71789 3.9e-4a0.27397 0.27397 0 0 0 0.0055 2.1e-4l0.01221-2e-3a0.27397 0.27397 0 0 0 0.02278-5e-3l0.0058-9.9e-4 1.7326-0.32595-0.0077 9.9e-4a0.27397 0.27397 0 0 0 0.03052-6e-3 0.27397 0.27397 0 0 0 0.0011-4.1e-4c1.0198-0.19987 1.7509-1.1287 2.1443-2.3768 0.3935-1.2486 0.46852-2.8502 0.15053-4.5401-0.31761-1.6869-0.96833-3.15-1.7871-4.17-0.71643-0.89249-1.5843-1.4642-2.4749-1.4724zm47.964 0c-0.89062 8e-3 -1.7585 0.57992-2.4749 1.4724-0.81877 1.02-1.4695 2.4831-1.7871 4.17-0.318 1.6898-0.24297 3.2915 0.15053 4.5401 0.39336 1.2481 1.1245 2.1768 2.1443 2.3768a0.27397 0.27397 0 0 0 0.0011 4e-4 0.27397 0.27397 0 0 0 0.03052 6e-3l-0.0077-9.9e-4 1.7326 0.32596 0.0058 9.9e-4a0.27397 0.27397 0 0 0 0.02278 5e-3l0.01219 9.9e-4a0.27397 0.27397 0 0 0 0.0055-1.9e-4c0.24046 0.0416 0.48063 0.0394 0.7179-4e-4 0.21106 0.12654 0.43923 0.21714 0.68431 0.26512a0.27397 0.27397 0 0 0 9.9e-4 4e-4 0.27397 0.27397 0 0 0 0.03076 6e-3l-0.0079-9.9e-4 1.7387 0.32714-0.0058-9.9e-4a0.27397 0.27397 0 0 0 0.03429 6e-3l-0.0058-9.9e-4 0.01223 9.9e-4a0.27397 0.27397 0 0 0 0.0058-4.1e-4c0.24002 0.0418 0.4794 0.039 0.71625-9.9e-4 0.21144 0.12698 0.44011 0.21774 0.68572 0.26584a0.27397 0.27397 0 0 0 0.0014 2e-4 0.27397 0.27397 0 0 0 0.03051 6e-3l-0.0077-9.9e-4 1.7385 0.32713-0.0058-9.9e-4a0.27397 0.27397 0 0 0 0.03451 6e-3l-0.0058-9.9e-4 0.01222 9.9e-4a0.27397 0.27397 0 0 0 0.0055-2e-4c1.0211 0.17693 2.0358-0.42463 2.8533-1.4438 0.81792-1.0197 1.468-2.4816 1.7855-4.1669a0.27397 0.27397 0 0 1 0-2.3e-4c0.31794-1.6895 0.24305-3.2909-0.1503-4.5394-0.3932-1.248-1.1242-2.1767-2.1438-2.377a0.27397 0.27397 0 0 0-0.0014-4e-4 0.27397 0.27397 0 0 0-0.01901-5e-3l-1.7441-0.32973 0.0071 9.9e-4a0.27397 0.27397 0 0 0-0.02255-5e-3c-5.16e-4 -1.3e-4 -0.0014-1.3e-4 -0.0019-2.4e-4l-0.0127-9.9e-4a0.27397 0.27397 0 0 0-4e-3 2.4e-4l8.39e-4 -2.4e-4c-0.24335-0.0429-0.48622-0.0412-0.72635-4e-4 -0.21018-0.12566-0.43712-0.21641-0.68102-0.26418a0.27397 0.27397 0 0 0-0.0014-4e-4 0.27397 0.27397 0 0 0-0.01878-5e-3l-1.7441-0.3283 0.0068 9.9e-4a0.27397 0.27397 0 0 0-0.02255-5e-3c-5.17e-4 -1.3e-4 -0.0014-1.3e-4 -0.0019-2.3e-4l-0.0127-9.9e-4a0.27397 0.27397 0 0 0-4e-3 2.4e-4l9.9e-4 -4e-4c-0.24294-0.0428-0.48566-0.0408-0.7254-2.2e-4 -0.21043-0.12596-0.43794-0.21638-0.6822-0.26421a0.27397 0.27397 0 0 0-0.0014-3.9e-4 0.27397 0.27397 0 0 0-0.0014-2.4e-4l-0.0029-5.8e-4a0.27397 0.27397 0 0 0-8.41e-4 -2.4e-4h-5.15e-4a0.27397 0.27397 0 0 0-0.0134-2e-3l-1.7441-0.32854 0.0068 9.9e-4a0.27397 0.27397 0 0 0-0.02255-5e-3c-6.37e-4 -1.3e-4 -0.0011-1.3e-4 -0.0019-2.3e-4l-0.01269-9.9e-4a0.27397 0.27397 0 0 0-0.0039 2.4e-4l7.7e-4 -2.4e-4c-0.12778-0.0226-0.25555-0.0329-0.38278-0.0317zm-48.299 0.30153v2.3e-4a6.0998 3.2762 79.339 0 0-0.01526 2e-3v-2.3e-4zm48.635 0 0.01527 2e-3v2.4e-4a3.2762 6.0998 10.661 0 0-0.01527-2e-3zm-48.656 5e-3a6.0998 3.2762 79.339 0 0-1.8831 2.0224l-1.7582 0.33088a6.0998 3.2762 79.339 0 1 1.8714-2.0194l-2.33e-4 -5.7e-4 0.0122-9.9e-4a6.0998 3.2762 79.339 0 1 6.95e-4 -2.4e-4v2.4e-4a6.0998 3.2762 79.339 0 1 0.0016-2.4e-4zm48.678 0 1.7556 0.33041a3.2762 6.0998 10.661 0 1 0.0016 2.3e-4v-2.3e-4a3.2762 6.0998 10.661 0 1 8.41e-4 2.3e-4l0.01222 9.9e-4 -2.35e-4 9.9e-4a3.2762 6.0998 10.661 0 1 1.8713 2.0194l-1.7582-0.3309a3.2762 6.0998 10.661 0 0-1.8832-2.0228zm-51.861 0.59953v2.4e-4a6.0998 3.2762 79.339 0 0-0.01527 2e-3v-2.4e-4zm55.045 0 0.01504 2e-3v2.4e-4a3.2762 6.0998 10.661 0 0-0.01504-2e-3zm-55.067 3e-3a6.0998 3.2762 79.339 0 0-1.8831 2.0224l-1.7582 0.33112a6.0998 3.2762 79.339 0 1 1.8714-2.0196l-2.35e-4 -5.7e-4 0.01246-9.9e-4a6.0998 3.2762 79.339 0 1 5.18e-4 -2.4e-4 6.0998 3.2762 79.339 0 1 0.0016-2.4e-4zm55.088 0 1.7556 0.33042a3.2762 6.0998 10.661 0 1 0.0016 2.4e-4 3.2762 6.0998 10.661 0 1 5.16e-4 2.3e-4l0.01245 9.9e-4 -2.34e-4 6e-4a3.2762 6.0998 10.661 0 1 1.8714 2.0196l-1.7585-0.33111a3.2762 6.0998 10.661 0 0-1.8829-2.0224zm-51.454 0.2858a5.1684 2.7759 79.339 0 1 3.4284 4.5915 5.1684 2.7759 79.339 0 1-1.7718 5.5926 5.1684 2.7759 79.339 0 1-3.6841-4.5657 5.1684 2.7759 79.339 0 1 1.7718-5.5926 5.1684 2.7759 79.339 0 1 0.25574-0.0259zm47.819 0a2.7759 5.1684 10.661 0 1 0.25573 0.0258 2.7759 5.1684 10.661 0 1 1.7718 5.5926 2.7759 5.1684 10.661 0 1-3.6841 4.5657 2.7759 5.1684 10.661 0 1-1.7721-5.5926 2.7759 5.1684 10.661 0 1 3.4286-4.5915zm-54.637 0.31374v2.4e-4a6.0998 3.2762 79.339 0 0-0.01503 2e-3v-2.4e-4zm61.456 0 0.01503 2e-3v2.4e-4a3.2762 6.0998 10.661 0 0-0.01527-2e-3zm-61.477 5e-3a6.0998 3.2762 79.339 0 0-1.8829 2.0224l-1.7584 0.3309a6.0998 3.2762 79.339 0 1 1.8714-2.0194l-2.35e-4 -9.9e-4 0.01246-9.9e-4a6.0998 3.2762 79.339 0 1 5.17e-4 -2.3e-4v2.3e-4a6.0998 3.2762 79.339 0 1 0.0016-2.3e-4zm61.499 0 1.7556 0.33042a3.2762 6.0998 10.661 0 1 0.0016 2.3e-4v-2.3e-4a3.2762 6.0998 10.661 0 1 5.17e-4 2.3e-4l0.01222 9.9e-4v5.9e-4a3.2762 6.0998 10.661 0 1 1.8715 2.0194l-1.7584-0.33101a3.2762 6.0998 10.661 0 0-1.8829-2.0218zm-58.839 0.65872c-0.08076 0.18293-0.15312 0.37552-0.21652 0.57675-0.39335 1.2485-0.46823 2.8501-0.1503 4.5396 0.31748 1.6853 0.96754 3.1474 1.7855 4.1671 0.13423 0.16736 0.27375 0.32295 0.41777 0.46617a5.1684 2.7759 79.339 0 1-2.8887-4.5042 5.1684 2.7759 79.339 0 1 1.0523-5.2455zm56.18 0a2.7759 5.1684 10.661 0 1 1.0523 5.2455 2.7759 5.1684 10.661 0 1-2.889 4.5042c0.14402-0.14322 0.28378-0.29881 0.41801-0.46617 0.81792-1.0197 1.468-2.4818 1.7855-4.1671 0.31793-1.6895 0.24281-3.2911-0.15053-4.5396-0.0634-0.20123-0.13552-0.39382-0.21628-0.57675zm-59.383 0.60094c-0.08134 0.18389-0.15509 0.37691-0.21887 0.57935-0.39335 1.2485-0.468 2.8498-0.15006 4.5394a0.27397 0.27397 0 0 0 0 2.4e-4c0.31749 1.6853 0.9673 3.1472 1.7852 4.1669 0.13484 0.1681 0.2754 0.32356 0.42012 0.46732a5.1684 2.7759 79.339 0 1-2.8911-4.5053 5.1684 2.7759 79.339 0 1 1.0546-5.2479zm62.586 0a2.7759 5.1684 10.661 0 1 1.0544 5.2479 2.7759 5.1684 10.661 0 1-2.8908 4.5053c0.14473-0.14376 0.28528-0.29922 0.42012-0.46732 0.81793-1.0198 1.4677-2.4816 1.7852-4.1669a0.27397 0.27397 0 0 1 0-2.4e-4c0.31794-1.6895 0.24305-3.2909-0.1503-4.5394-0.06379-0.20244-0.13729-0.39546-0.21863-0.57935zm-57.662 0.0475a6.0998 3.2762 79.339 0 0-0.09159 0.37786l-1.7587 0.33111a6.0998 3.2762 79.339 0 1 0.09182-0.37809zm52.738 0 1.7587 0.33088a3.2762 6.0998 10.661 0 1 0.09182 0.37809l-1.7587-0.33111a3.2762 6.0998 10.661 0 0-0.09182-0.37786zm-55.943 0.60327a6.0998 3.2762 79.339 0 0-0.09159 0.37787l-1.7589 0.33113a6.0998 3.2762 79.339 0 1 0.09182-0.37786zm59.149 0 1.7587 0.33114a3.2762 6.0998 10.661 0 1 0.09182 0.37786l-1.7589-0.33113a3.2762 6.0998 10.661 0 0-0.09159-0.37787zm-62.354 0.60356a6.0998 3.2762 79.339 0 0-0.09158 0.37784l-1.7589 0.33112a6.0998 3.2762 79.339 0 1 0.09182-0.37807zm65.559 0 1.7585 0.33089a3.2762 6.0998 10.661 0 1 0.09206 0.37807l-1.7589-0.33124a3.2762 6.0998 10.661 0 0-0.09158-0.37784zm-54.853 0.11437a1.9313 1.0373 79.339 0 0-0.14889 7e-3 1.9313 1.0373 79.339 0 0-0.662 2.0898 1.9313 1.0373 79.339 0 0 1.3766 1.7061 1.9313 1.0373 79.339 0 0 0.662-2.0898 1.9313 1.0373 79.339 0 0-1.2277-1.7141zm44.147 0a1.0373 1.9313 10.661 0 0-1.228 1.7141 1.0373 1.9313 10.661 0 0 0.66224 2.0898 1.0373 1.9313 10.661 0 0 1.3766-1.7061 1.0373 1.9313 10.661 0 0-0.662-2.0898 1.0373 1.9313 10.661 0 0-0.14889-7e-3zm-48.661 0.0424a6.0998 3.2762 79.339 0 0 0.15899 2.7227 6.0998 3.2762 79.339 0 0 4.3475 5.3886l-1.7556 0.3304a6.0998 3.2762 79.339 0 1-0.0029 3.9e-4 6.0998 3.2762 79.339 0 1-0.0026 2.2e-4l-0.0209 5e-3 -2.35e-4 -9.9e-4a6.0998 3.2762 79.339 0 1-4.3243-5.3914 6.0998 3.2762 79.339 0 1-0.15875-2.7227zm53.175 0 1.7587 0.33113a3.2762 6.0998 10.661 0 1-0.15875 2.7227 3.2762 6.0998 10.661 0 1-4.3243 5.3914l-2.33e-4 9.9e-4 -0.0209-5e-3a3.2762 6.0998 10.661 0 1-0.0029-2.1e-4 3.2762 6.0998 10.661 0 1-0.0026-3.8e-4l-1.7556-0.33059a3.2762 6.0998 10.661 0 0 4.3475-5.3886 3.2762 6.0998 10.661 0 0 0.15898-2.7227zm-56.38 0.60353a6.0998 3.2762 79.339 0 0 0.15898 2.7227 6.0998 3.2762 79.339 0 0 4.3475 5.3883l-1.7556 0.33041a6.0998 3.2762 79.339 0 1-0.0026 3.9e-4 6.0998 3.2762 79.339 0 1-0.0029 4.1e-4l-0.0209 5e-3 -2.33e-4 -9.9e-4a6.0998 3.2762 79.339 0 1-4.3243-5.3914 6.0998 3.2762 79.339 0 1-0.15875-2.7225zm59.585 0 1.7587 0.33111a3.2762 6.0998 10.661 0 1-0.15875 2.7225 3.2762 6.0998 10.661 0 1-4.3243 5.3914l-2.33e-4 9.9e-4 -0.02089-5e-3a3.2762 6.0998 10.661 0 1-0.0029-3.7e-4 3.2762 6.0998 10.661 0 1-0.0026-4.2e-4l-1.7556-0.33041a3.2762 6.0998 10.661 0 0 4.3476-5.3884 3.2762 6.0998 10.661 0 0 0.15898-2.7227zm-62.79 0.6033a6.0998 3.2762 79.339 0 0 0.15875 2.7227 6.0998 3.2762 79.339 0 0 4.3475 5.3886l-1.7556 0.3302a6.0998 3.2762 79.339 0 1-0.0026 3.7e-4 6.0998 3.2762 79.339 0 1-0.0029 4e-4l-0.02089 5e-3 -2.36e-4 -9.9e-4a6.0998 3.2762 79.339 0 1-4.3243-5.3914 6.0998 3.2762 79.339 0 1-0.15851-2.7227zm65.995 0 1.7587 0.33111a3.2762 6.0998 10.661 0 1-0.15875 2.7227 3.2762 6.0998 10.661 0 1-4.3243 5.3914l-2.35e-4 9.9e-4 -0.02067-5e-3a3.2762 6.0998 10.661 0 1-0.0029-4e-4 3.2762 6.0998 10.661 0 1-0.0026-3.9e-4l-1.7556-0.33019a3.2762 6.0998 10.661 0 0 4.3475-5.3885 3.2762 6.0998 10.661 0 0 0.15875-2.7227zm-55.066 6.9014v9.9e-4l-0.01127 9.9e-4a6.0998 3.2762 79.339 0 0 0.01127-2e-3zm44.137 0a3.2762 6.0998 10.661 0 0 0.01127 3e-3l-0.01127-9.9e-4zm-44.085 0.26936-4e-3 9.9e-4 0.0031-3.8e-4a0.27397 0.27397 0 0 0 9.24e-4 -4.1e-4zm44.034 0a0.27397 0.27397 0 0 0 9.24e-4 4e-4l0.0031 4.1e-4zm-47.291 0.33395 2.35e-4 9.9e-4 -0.01151 9.9e-4a6.0998 3.2762 79.339 0 0 0.01127-2e-3zm50.548 0a3.2762 6.0998 10.661 0 0 0.01127 2e-3l-0.01151-9.9e-4zm-50.496 0.26958-4e-3 9.9e-4 0.0031-4e-4a0.27397 0.27397 0 0 0 9.25e-4 -3.9e-4zm50.444 0a0.27397 0.27397 0 0 0 9.9e-4 4.1e-4l0.0031 3.9e-4zm-53.701 0.33393 2.34e-4 9.9e-4 -0.01151 9.9e-4a6.0998 3.2762 79.339 0 0 0.01127-2e-3zm56.958 0a3.2762 6.0998 10.661 0 0 0.01127 3e-3l-0.01151-9.9e-4zm-56.906 0.26935-4e-3 9.9e-4 0.0033-4e-4a0.27397 0.27397 0 0 0 8.41e-4 -4e-4zm56.855 0a0.27397 0.27397 0 0 0 8.41e-4 4.1e-4l0.0031 4.1e-4z" color="#000000" stroke-linejoin="round" stroke-width=".54789" style="-inkscape-stroke:none"/>
  <path d="m35.063 15.798c-8.2342 0-15.818 0.68301-21.911 1.8392l0.1726 1.1918c6.0041-1.1423 13.548-1.8284 21.738-1.8284 8.1953 0 15.742 0.68709 21.747 1.8306l0.16767-1.193c-6.0935-1.1568-13.679-1.8402-21.915-1.8402z" color="#000000" stroke-linejoin="round" stroke-width=".45443" style="-inkscape-stroke:none"/>
 </g>
</svg>
